
<svg xmlns="http://www.w3.org/2000/svg" xmlns:xlink="http://www.w3.org/1999/xlink" viewBox="0 0 512 512" width="512" height="512" preserveAspectRatio="xMidYMid meet" style="width: 100%; height: 100%; transform: translate3d(0px, 0px, 0px); content-visibility: visible;">
    <defs>
        <clipPath id="__lottie_element_2">
            <rect width="512" height="512" x="0" y="0"></rect>
        </clipPath>
    </defs>
<style type="text/css">
  @keyframes wave {
    0% {
      opacity: 0.5;
    }
    20% {
      opacity: 1;
    }
    40% {
        opacity: 0.5;
    }
    100% {
      opacity: 0.5;
    }
  }

  

  path {
    fill: #347292;
    stroke: #347292;
  }

  g#paw_1 {
    
    animation-name: wave; 
    animation-duration: 2s; 
    animation-iteration-count: infinite;

  }

  g#paw_2 {
    
    animation-name: wave; 
    animation-duration: 2s; 
    animation-iteration-count: infinite;
    animation-delay: 0.3s;
  }

  g#paw_3 {
    
    animation-name: wave; 
    animation-duration: 2s; 
    animation-iteration-count: infinite;
    animation-delay: 0.6s;
  }
  
  
  g#paw_4 {
    
    animation-name: wave; 
    animation-duration: 2s; 
    animation-iteration-count: infinite;
    animation-delay: 0.9s;
  }
  g#paw_5 {
    
    animation-name: wave; 
    animation-duration: 2s; 
    animation-iteration-count: infinite;
    animation-delay: 1.2s;
  }
  

</style>
    <g clip-path="url(#__lottie_element_2)">
        <g id='paw_1' transform="matrix(0.3940053880214691,0.3078307509422302,-0.3078307509422302,0.3940053880214691,-42.84064483642578,92.77507019042969)" opacity="0.9249830000000003" style="display: block;">
            <g opacity="1" transform="matrix(1,0,0,1,349.3680114746094,158.76100158691406)">
                <path fill="rgb(0,0,0)" fill-opacity="1" d=" M0,-40.82099914550781 C22.545000076293945,-40.82099914550781 40.81999969482422,-22.545000076293945 40.81999969482422,0 C40.81999969482422,22.545000076293945 22.545000076293945,40.82099914550781 0,40.82099914550781 C-22.545000076293945,40.82099914550781 -40.81999969482422,22.545000076293945 -40.81999969482422,0 C-40.81999969482422,-22.545000076293945 -22.545000076293945,-40.82099914550781 0,-40.82099914550781z"></path>
                <path stroke-linecap="round" stroke-linejoin="round" fill-opacity="0" stroke="rgb(0,0,0)" stroke-opacity="1" stroke-width="2" d=" M0,-40.82099914550781 C22.545000076293945,-40.82099914550781 40.81999969482422,-22.545000076293945 40.81999969482422,0 C40.81999969482422,22.545000076293945 22.545000076293945,40.82099914550781 0,40.82099914550781 C-22.545000076293945,40.82099914550781 -40.81999969482422,22.545000076293945 -40.81999969482422,0 C-40.81999969482422,-22.545000076293945 -22.545000076293945,-40.82099914550781 0,-40.82099914550781z"></path>
            </g>
            <g opacity="1" transform="matrix(1,0,0,1,359.19500732421875,79.38700103759766)">
                <path fill="rgb(0,0,0)" fill-opacity="1" d=" M0,-20.410999298095703 C11.272000312805176,-20.410999298095703 20.40999984741211,-11.27299976348877 20.40999984741211,-0.0010000000474974513 C20.40999984741211,11.272000312805176 11.272000312805176,20.410999298095703 0,20.410999298095703 C-11.270999908447266,20.410999298095703 -20.40999984741211,11.272000312805176 -20.40999984741211,-0.0010000000474974513 C-20.40999984741211,-11.27299976348877 -11.270999908447266,-20.410999298095703 0,-20.410999298095703z"></path>
                <path stroke-linecap="round" stroke-linejoin="round" fill-opacity="0" stroke="rgb(0,0,0)" stroke-opacity="1" stroke-width="2" d=" M0,-20.410999298095703 C11.272000312805176,-20.410999298095703 20.40999984741211,-11.27299976348877 20.40999984741211,-0.0010000000474974513 C20.40999984741211,11.272000312805176 11.272000312805176,20.410999298095703 0,20.410999298095703 C-11.270999908447266,20.410999298095703 -20.40999984741211,11.272000312805176 -20.40999984741211,-0.0010000000474974513 C-20.40999984741211,-11.27299976348877 -11.270999908447266,-20.410999298095703 0,-20.410999298095703z"></path>
            </g>
            <g opacity="1" transform="matrix(1,0,0,1,413.62200927734375,105.08799743652344)">
                <path fill="rgb(0,0,0)" fill-opacity="1" d=" M0,-21.92300033569336 C12.107000350952148,-21.92300033569336 21.922000885009766,-12.107000350952148 21.922000885009766,0 C21.922000885009766,12.107999801635742 12.107000350952148,21.92300033569336 0,21.92300033569336 C-12.107000350952148,21.92300033569336 -21.92300033569336,12.107999801635742 -21.92300033569336,0 C-21.92300033569336,-12.107000350952148 -12.107000350952148,-21.92300033569336 0,-21.92300033569336z"></path>
                <path stroke-linecap="round" stroke-linejoin="round" fill-opacity="0" stroke="rgb(0,0,0)" stroke-opacity="1" stroke-width="2" d=" M0,-21.92300033569336 C12.107000350952148,-21.92300033569336 21.922000885009766,-12.107000350952148 21.922000885009766,0 C21.922000885009766,12.107999801635742 12.107000350952148,21.92300033569336 0,21.92300033569336 C-12.107000350952148,21.92300033569336 -21.92300033569336,12.107999801635742 -21.92300033569336,0 C-21.92300033569336,-12.107000350952148 -12.107000350952148,-21.92300033569336 0,-21.92300033569336z"></path>
            </g>
            <g opacity="1" transform="matrix(1,0,0,1,431.7650146484375,158.0050048828125)">
                <path fill="rgb(0,0,0)" fill-opacity="1" d=" M0.0010000000474974513,-20.410999298095703 C11.27299976348877,-20.410999298095703 20.40999984741211,-11.27299976348877 20.40999984741211,-0.0010000000474974513 C20.40999984741211,11.272000312805176 11.27299976348877,20.410999298095703 0.0010000000474974513,20.410999298095703 C-11.270999908447266,20.410999298095703 -20.40999984741211,11.272000312805176 -20.40999984741211,-0.0010000000474974513 C-20.40999984741211,-11.27299976348877 -11.270999908447266,-20.410999298095703 0.0010000000474974513,-20.410999298095703z"></path>
                <path stroke-linecap="round" stroke-linejoin="round" fill-opacity="0" stroke="rgb(0,0,0)" stroke-opacity="1" stroke-width="2" d=" M0.0010000000474974513,-20.410999298095703 C11.27299976348877,-20.410999298095703 20.40999984741211,-11.27299976348877 20.40999984741211,-0.0010000000474974513 C20.40999984741211,11.272000312805176 11.27299976348877,20.410999298095703 0.0010000000474974513,20.410999298095703 C-11.270999908447266,20.410999298095703 -20.40999984741211,11.272000312805176 -20.40999984741211,-0.0010000000474974513 C-20.40999984741211,-11.27299976348877 -11.270999908447266,-20.410999298095703 0.0010000000474974513,-20.410999298095703z"></path>
            </g>
            
        </g>
        <g id="paw_2" class="paw2" transform="matrix(0.3940053880214691,0.3078307509422302,-0.3078307509422302,0.3940053880214691,51.15935516357422,92.77507019042969)" opacity="0.5" style="display: block;">
            <g opacity="1" transform="matrix(1,0,0,1,349.3680114746094,158.76100158691406)">
                <path fill="rgb(0,0,0)" fill-opacity="1" d=" M0,-40.82099914550781 C22.545000076293945,-40.82099914550781 40.81999969482422,-22.545000076293945 40.81999969482422,0 C40.81999969482422,22.545000076293945 22.545000076293945,40.82099914550781 0,40.82099914550781 C-22.545000076293945,40.82099914550781 -40.81999969482422,22.545000076293945 -40.81999969482422,0 C-40.81999969482422,-22.545000076293945 -22.545000076293945,-40.82099914550781 0,-40.82099914550781z"></path>
                <path stroke-linecap="round" stroke-linejoin="round" fill-opacity="0" stroke="rgb(0,0,0)" stroke-opacity="1" stroke-width="2" d=" M0,-40.82099914550781 C22.545000076293945,-40.82099914550781 40.81999969482422,-22.545000076293945 40.81999969482422,0 C40.81999969482422,22.545000076293945 22.545000076293945,40.82099914550781 0,40.82099914550781 C-22.545000076293945,40.82099914550781 -40.81999969482422,22.545000076293945 -40.81999969482422,0 C-40.81999969482422,-22.545000076293945 -22.545000076293945,-40.82099914550781 0,-40.82099914550781z"></path>
            </g>
            <g opacity="1" transform="matrix(1,0,0,1,359.19500732421875,79.38700103759766)">
                <path fill="rgb(0,0,0)" fill-opacity="1" d=" M0,-20.410999298095703 C11.272000312805176,-20.410999298095703 20.40999984741211,-11.27299976348877 20.40999984741211,-0.0010000000474974513 C20.40999984741211,11.272000312805176 11.272000312805176,20.410999298095703 0,20.410999298095703 C-11.270999908447266,20.410999298095703 -20.40999984741211,11.272000312805176 -20.40999984741211,-0.0010000000474974513 C-20.40999984741211,-11.27299976348877 -11.270999908447266,-20.410999298095703 0,-20.410999298095703z"></path>
                <path stroke-linecap="round" stroke-linejoin="round" fill-opacity="0" stroke="rgb(0,0,0)" stroke-opacity="1" stroke-width="2" d=" M0,-20.410999298095703 C11.272000312805176,-20.410999298095703 20.40999984741211,-11.27299976348877 20.40999984741211,-0.0010000000474974513 C20.40999984741211,11.272000312805176 11.272000312805176,20.410999298095703 0,20.410999298095703 C-11.270999908447266,20.410999298095703 -20.40999984741211,11.272000312805176 -20.40999984741211,-0.0010000000474974513 C-20.40999984741211,-11.27299976348877 -11.270999908447266,-20.410999298095703 0,-20.410999298095703z"></path>
            </g>
            <g opacity="1" transform="matrix(1,0,0,1,413.62200927734375,105.08799743652344)">
                <path fill="rgb(0,0,0)" fill-opacity="1" d=" M0,-21.92300033569336 C12.107000350952148,-21.92300033569336 21.922000885009766,-12.107000350952148 21.922000885009766,0 C21.922000885009766,12.107999801635742 12.107000350952148,21.92300033569336 0,21.92300033569336 C-12.107000350952148,21.92300033569336 -21.92300033569336,12.107999801635742 -21.92300033569336,0 C-21.92300033569336,-12.107000350952148 -12.107000350952148,-21.92300033569336 0,-21.92300033569336z"></path>
                <path stroke-linecap="round" stroke-linejoin="round" fill-opacity="0" stroke="rgb(0,0,0)" stroke-opacity="1" stroke-width="2" d=" M0,-21.92300033569336 C12.107000350952148,-21.92300033569336 21.922000885009766,-12.107000350952148 21.922000885009766,0 C21.922000885009766,12.107999801635742 12.107000350952148,21.92300033569336 0,21.92300033569336 C-12.107000350952148,21.92300033569336 -21.92300033569336,12.107999801635742 -21.92300033569336,0 C-21.92300033569336,-12.107000350952148 -12.107000350952148,-21.92300033569336 0,-21.92300033569336z"></path>
            </g>
            <g opacity="1" transform="matrix(1,0,0,1,431.7650146484375,158.0050048828125)">
                <path fill="rgb(0,0,0)" fill-opacity="1" d=" M0.0010000000474974513,-20.410999298095703 C11.27299976348877,-20.410999298095703 20.40999984741211,-11.27299976348877 20.40999984741211,-0.0010000000474974513 C20.40999984741211,11.272000312805176 11.27299976348877,20.410999298095703 0.0010000000474974513,20.410999298095703 C-11.270999908447266,20.410999298095703 -20.40999984741211,11.272000312805176 -20.40999984741211,-0.0010000000474974513 C-20.40999984741211,-11.27299976348877 -11.270999908447266,-20.410999298095703 0.0010000000474974513,-20.410999298095703z"></path>
                <path stroke-linecap="round" stroke-linejoin="round" fill-opacity="0" stroke="rgb(0,0,0)" stroke-opacity="1" stroke-width="2" d=" M0.0010000000474974513,-20.410999298095703 C11.27299976348877,-20.410999298095703 20.40999984741211,-11.27299976348877 20.40999984741211,-0.0010000000474974513 C20.40999984741211,11.272000312805176 11.27299976348877,20.410999298095703 0.0010000000474974513,20.410999298095703 C-11.270999908447266,20.410999298095703 -20.40999984741211,11.272000312805176 -20.40999984741211,-0.0010000000474974513 C-20.40999984741211,-11.27299976348877 -11.270999908447266,-20.410999298095703 0.0010000000474974513,-20.410999298095703z"></path>
            </g>
            
        </g>
        <g id='paw_3' transform="matrix(0.3940053880214691,0.3078307509422302,-0.3078307509422302,0.3940053880214691,145.15936279296875,92.77507019042969)" opacity="0.5" style="display: block;">
            <g opacity="1" transform="matrix(1,0,0,1,349.3680114746094,158.76100158691406)">
                <path fill="rgb(0,0,0)" fill-opacity="1" d=" M0,-40.82099914550781 C22.545000076293945,-40.82099914550781 40.81999969482422,-22.545000076293945 40.81999969482422,0 C40.81999969482422,22.545000076293945 22.545000076293945,40.82099914550781 0,40.82099914550781 C-22.545000076293945,40.82099914550781 -40.81999969482422,22.545000076293945 -40.81999969482422,0 C-40.81999969482422,-22.545000076293945 -22.545000076293945,-40.82099914550781 0,-40.82099914550781z"></path>
                <path stroke-linecap="round" stroke-linejoin="round" fill-opacity="0" stroke="rgb(0,0,0)" stroke-opacity="1" stroke-width="2" d=" M0,-40.82099914550781 C22.545000076293945,-40.82099914550781 40.81999969482422,-22.545000076293945 40.81999969482422,0 C40.81999969482422,22.545000076293945 22.545000076293945,40.82099914550781 0,40.82099914550781 C-22.545000076293945,40.82099914550781 -40.81999969482422,22.545000076293945 -40.81999969482422,0 C-40.81999969482422,-22.545000076293945 -22.545000076293945,-40.82099914550781 0,-40.82099914550781z"></path>
            </g>
            <g opacity="1" transform="matrix(1,0,0,1,359.19500732421875,79.38700103759766)">
                <path fill="rgb(0,0,0)" fill-opacity="1" d=" M0,-20.410999298095703 C11.272000312805176,-20.410999298095703 20.40999984741211,-11.27299976348877 20.40999984741211,-0.0010000000474974513 C20.40999984741211,11.272000312805176 11.272000312805176,20.410999298095703 0,20.410999298095703 C-11.270999908447266,20.410999298095703 -20.40999984741211,11.272000312805176 -20.40999984741211,-0.0010000000474974513 C-20.40999984741211,-11.27299976348877 -11.270999908447266,-20.410999298095703 0,-20.410999298095703z"></path>
                <path stroke-linecap="round" stroke-linejoin="round" fill-opacity="0" stroke="rgb(0,0,0)" stroke-opacity="1" stroke-width="2" d=" M0,-20.410999298095703 C11.272000312805176,-20.410999298095703 20.40999984741211,-11.27299976348877 20.40999984741211,-0.0010000000474974513 C20.40999984741211,11.272000312805176 11.272000312805176,20.410999298095703 0,20.410999298095703 C-11.270999908447266,20.410999298095703 -20.40999984741211,11.272000312805176 -20.40999984741211,-0.0010000000474974513 C-20.40999984741211,-11.27299976348877 -11.270999908447266,-20.410999298095703 0,-20.410999298095703z"></path>
            </g>
            <g opacity="1" transform="matrix(1,0,0,1,413.62200927734375,105.08799743652344)">
                <path fill="rgb(0,0,0)" fill-opacity="1" d=" M0,-21.92300033569336 C12.107000350952148,-21.92300033569336 21.922000885009766,-12.107000350952148 21.922000885009766,0 C21.922000885009766,12.107999801635742 12.107000350952148,21.92300033569336 0,21.92300033569336 C-12.107000350952148,21.92300033569336 -21.92300033569336,12.107999801635742 -21.92300033569336,0 C-21.92300033569336,-12.107000350952148 -12.107000350952148,-21.92300033569336 0,-21.92300033569336z"></path>
                <path stroke-linecap="round" stroke-linejoin="round" fill-opacity="0" stroke="rgb(0,0,0)" stroke-opacity="1" stroke-width="2" d=" M0,-21.92300033569336 C12.107000350952148,-21.92300033569336 21.922000885009766,-12.107000350952148 21.922000885009766,0 C21.922000885009766,12.107999801635742 12.107000350952148,21.92300033569336 0,21.92300033569336 C-12.107000350952148,21.92300033569336 -21.92300033569336,12.107999801635742 -21.92300033569336,0 C-21.92300033569336,-12.107000350952148 -12.107000350952148,-21.92300033569336 0,-21.92300033569336z"></path>
            </g>
            <g opacity="1" transform="matrix(1,0,0,1,431.7650146484375,158.0050048828125)">
                <path fill="rgb(0,0,0)" fill-opacity="1" d=" M0.0010000000474974513,-20.410999298095703 C11.27299976348877,-20.410999298095703 20.40999984741211,-11.27299976348877 20.40999984741211,-0.0010000000474974513 C20.40999984741211,11.272000312805176 11.27299976348877,20.410999298095703 0.0010000000474974513,20.410999298095703 C-11.270999908447266,20.410999298095703 -20.40999984741211,11.272000312805176 -20.40999984741211,-0.0010000000474974513 C-20.40999984741211,-11.27299976348877 -11.270999908447266,-20.410999298095703 0.0010000000474974513,-20.410999298095703z"></path>
                <path stroke-linecap="round" stroke-linejoin="round" fill-opacity="0" stroke="rgb(0,0,0)" stroke-opacity="1" stroke-width="2" d=" M0.0010000000474974513,-20.410999298095703 C11.27299976348877,-20.410999298095703 20.40999984741211,-11.27299976348877 20.40999984741211,-0.0010000000474974513 C20.40999984741211,11.272000312805176 11.27299976348877,20.410999298095703 0.0010000000474974513,20.410999298095703 C-11.270999908447266,20.410999298095703 -20.40999984741211,11.272000312805176 -20.40999984741211,-0.0010000000474974513 C-20.40999984741211,-11.27299976348877 -11.270999908447266,-20.410999298095703 0.0010000000474974513,-20.410999298095703z"></path>
            </g>
            
        </g>
        <g id='paw_4' transform="matrix(0.3940053880214691,0.3078307509422302,-0.3078307509422302,0.3940053880214691,239.15936279296875,92.77507019042969)" opacity="0.5" style="display: block;">
            <g opacity="1" transform="matrix(1,0,0,1,349.3680114746094,158.76100158691406)">
                <path fill="rgb(0,0,0)" fill-opacity="1" d=" M0,-40.82099914550781 C22.545000076293945,-40.82099914550781 40.81999969482422,-22.545000076293945 40.81999969482422,0 C40.81999969482422,22.545000076293945 22.545000076293945,40.82099914550781 0,40.82099914550781 C-22.545000076293945,40.82099914550781 -40.81999969482422,22.545000076293945 -40.81999969482422,0 C-40.81999969482422,-22.545000076293945 -22.545000076293945,-40.82099914550781 0,-40.82099914550781z"></path>
                <path stroke-linecap="round" stroke-linejoin="round" fill-opacity="0" stroke="rgb(0,0,0)" stroke-opacity="1" stroke-width="2" d=" M0,-40.82099914550781 C22.545000076293945,-40.82099914550781 40.81999969482422,-22.545000076293945 40.81999969482422,0 C40.81999969482422,22.545000076293945 22.545000076293945,40.82099914550781 0,40.82099914550781 C-22.545000076293945,40.82099914550781 -40.81999969482422,22.545000076293945 -40.81999969482422,0 C-40.81999969482422,-22.545000076293945 -22.545000076293945,-40.82099914550781 0,-40.82099914550781z"></path>
            </g>
            <g opacity="1" transform="matrix(1,0,0,1,359.19500732421875,79.38700103759766)">
                <path fill="rgb(0,0,0)" fill-opacity="1" d=" M0,-20.410999298095703 C11.272000312805176,-20.410999298095703 20.40999984741211,-11.27299976348877 20.40999984741211,-0.0010000000474974513 C20.40999984741211,11.272000312805176 11.272000312805176,20.410999298095703 0,20.410999298095703 C-11.270999908447266,20.410999298095703 -20.40999984741211,11.272000312805176 -20.40999984741211,-0.0010000000474974513 C-20.40999984741211,-11.27299976348877 -11.270999908447266,-20.410999298095703 0,-20.410999298095703z"></path>
                <path stroke-linecap="round" stroke-linejoin="round" fill-opacity="0" stroke="rgb(0,0,0)" stroke-opacity="1" stroke-width="2" d=" M0,-20.410999298095703 C11.272000312805176,-20.410999298095703 20.40999984741211,-11.27299976348877 20.40999984741211,-0.0010000000474974513 C20.40999984741211,11.272000312805176 11.272000312805176,20.410999298095703 0,20.410999298095703 C-11.270999908447266,20.410999298095703 -20.40999984741211,11.272000312805176 -20.40999984741211,-0.0010000000474974513 C-20.40999984741211,-11.27299976348877 -11.270999908447266,-20.410999298095703 0,-20.410999298095703z"></path>
            </g>
            <g opacity="1" transform="matrix(1,0,0,1,413.62200927734375,105.08799743652344)">
                <path fill="rgb(0,0,0)" fill-opacity="1" d=" M0,-21.92300033569336 C12.107000350952148,-21.92300033569336 21.922000885009766,-12.107000350952148 21.922000885009766,0 C21.922000885009766,12.107999801635742 12.107000350952148,21.92300033569336 0,21.92300033569336 C-12.107000350952148,21.92300033569336 -21.92300033569336,12.107999801635742 -21.92300033569336,0 C-21.92300033569336,-12.107000350952148 -12.107000350952148,-21.92300033569336 0,-21.92300033569336z"></path>
                <path stroke-linecap="round" stroke-linejoin="round" fill-opacity="0" stroke="rgb(0,0,0)" stroke-opacity="1" stroke-width="2" d=" M0,-21.92300033569336 C12.107000350952148,-21.92300033569336 21.922000885009766,-12.107000350952148 21.922000885009766,0 C21.922000885009766,12.107999801635742 12.107000350952148,21.92300033569336 0,21.92300033569336 C-12.107000350952148,21.92300033569336 -21.92300033569336,12.107999801635742 -21.92300033569336,0 C-21.92300033569336,-12.107000350952148 -12.107000350952148,-21.92300033569336 0,-21.92300033569336z"></path>
            </g>
            <g opacity="1" transform="matrix(1,0,0,1,431.7650146484375,158.0050048828125)">
                <path fill="rgb(0,0,0)" fill-opacity="1" d=" M0.0010000000474974513,-20.410999298095703 C11.27299976348877,-20.410999298095703 20.40999984741211,-11.27299976348877 20.40999984741211,-0.0010000000474974513 C20.40999984741211,11.272000312805176 11.27299976348877,20.410999298095703 0.0010000000474974513,20.410999298095703 C-11.270999908447266,20.410999298095703 -20.40999984741211,11.272000312805176 -20.40999984741211,-0.0010000000474974513 C-20.40999984741211,-11.27299976348877 -11.270999908447266,-20.410999298095703 0.0010000000474974513,-20.410999298095703z"></path>
                <path stroke-linecap="round" stroke-linejoin="round" fill-opacity="0" stroke="rgb(0,0,0)" stroke-opacity="1" stroke-width="2" d=" M0.0010000000474974513,-20.410999298095703 C11.27299976348877,-20.410999298095703 20.40999984741211,-11.27299976348877 20.40999984741211,-0.0010000000474974513 C20.40999984741211,11.272000312805176 11.27299976348877,20.410999298095703 0.0010000000474974513,20.410999298095703 C-11.270999908447266,20.410999298095703 -20.40999984741211,11.272000312805176 -20.40999984741211,-0.0010000000474974513 C-20.40999984741211,-11.27299976348877 -11.270999908447266,-20.410999298095703 0.0010000000474974513,-20.410999298095703z"></path>
            </g>
           
        </g>
        <g id='paw_5' transform="matrix(0.3940053880214691,0.3078307509422302,-0.3078307509422302,0.3940053880214691,333.15936279296875,92.77507019042969)" opacity="0.5" style="display: block;">
            <g opacity="1" transform="matrix(1,0,0,1,349.3680114746094,158.76100158691406)">
                <path fill="rgb(0,0,0)" fill-opacity="1" d=" M0,-40.82099914550781 C22.545000076293945,-40.82099914550781 40.81999969482422,-22.545000076293945 40.81999969482422,0 C40.81999969482422,22.545000076293945 22.545000076293945,40.82099914550781 0,40.82099914550781 C-22.545000076293945,40.82099914550781 -40.81999969482422,22.545000076293945 -40.81999969482422,0 C-40.81999969482422,-22.545000076293945 -22.545000076293945,-40.82099914550781 0,-40.82099914550781z"></path>
                <path stroke-linecap="round" stroke-linejoin="round" fill-opacity="0" stroke="rgb(0,0,0)" stroke-opacity="1" stroke-width="2" d=" M0,-40.82099914550781 C22.545000076293945,-40.82099914550781 40.81999969482422,-22.545000076293945 40.81999969482422,0 C40.81999969482422,22.545000076293945 22.545000076293945,40.82099914550781 0,40.82099914550781 C-22.545000076293945,40.82099914550781 -40.81999969482422,22.545000076293945 -40.81999969482422,0 C-40.81999969482422,-22.545000076293945 -22.545000076293945,-40.82099914550781 0,-40.82099914550781z"></path>
            </g>
            <g opacity="1" transform="matrix(1,0,0,1,359.19500732421875,79.38700103759766)">
                <path fill="rgb(0,0,0)" fill-opacity="1" d=" M0,-20.410999298095703 C11.272000312805176,-20.410999298095703 20.40999984741211,-11.27299976348877 20.40999984741211,-0.0010000000474974513 C20.40999984741211,11.272000312805176 11.272000312805176,20.410999298095703 0,20.410999298095703 C-11.270999908447266,20.410999298095703 -20.40999984741211,11.272000312805176 -20.40999984741211,-0.0010000000474974513 C-20.40999984741211,-11.27299976348877 -11.270999908447266,-20.410999298095703 0,-20.410999298095703z"></path>
                <path stroke-linecap="round" stroke-linejoin="round" fill-opacity="0" stroke="rgb(0,0,0)" stroke-opacity="1" stroke-width="2" d=" M0,-20.410999298095703 C11.272000312805176,-20.410999298095703 20.40999984741211,-11.27299976348877 20.40999984741211,-0.0010000000474974513 C20.40999984741211,11.272000312805176 11.272000312805176,20.410999298095703 0,20.410999298095703 C-11.270999908447266,20.410999298095703 -20.40999984741211,11.272000312805176 -20.40999984741211,-0.0010000000474974513 C-20.40999984741211,-11.27299976348877 -11.270999908447266,-20.410999298095703 0,-20.410999298095703z"></path>
            </g>
            <g opacity="1" transform="matrix(1,0,0,1,413.62200927734375,105.08799743652344)">
                <path fill="rgb(0,0,0)" fill-opacity="1" d=" M0,-21.92300033569336 C12.107000350952148,-21.92300033569336 21.922000885009766,-12.107000350952148 21.922000885009766,0 C21.922000885009766,12.107999801635742 12.107000350952148,21.92300033569336 0,21.92300033569336 C-12.107000350952148,21.92300033569336 -21.92300033569336,12.107999801635742 -21.92300033569336,0 C-21.92300033569336,-12.107000350952148 -12.107000350952148,-21.92300033569336 0,-21.92300033569336z"></path>
                <path stroke-linecap="round" stroke-linejoin="round" fill-opacity="0" stroke="rgb(0,0,0)" stroke-opacity="1" stroke-width="2" d=" M0,-21.92300033569336 C12.107000350952148,-21.92300033569336 21.922000885009766,-12.107000350952148 21.922000885009766,0 C21.922000885009766,12.107999801635742 12.107000350952148,21.92300033569336 0,21.92300033569336 C-12.107000350952148,21.92300033569336 -21.92300033569336,12.107999801635742 -21.92300033569336,0 C-21.92300033569336,-12.107000350952148 -12.107000350952148,-21.92300033569336 0,-21.92300033569336z"></path>
            </g>
            <g opacity="1" transform="matrix(1,0,0,1,431.7650146484375,158.0050048828125)">
                <path fill="rgb(0,0,0)" fill-opacity="1" d=" M0.0010000000474974513,-20.410999298095703 C11.27299976348877,-20.410999298095703 20.40999984741211,-11.27299976348877 20.40999984741211,-0.0010000000474974513 C20.40999984741211,11.272000312805176 11.27299976348877,20.410999298095703 0.0010000000474974513,20.410999298095703 C-11.270999908447266,20.410999298095703 -20.40999984741211,11.272000312805176 -20.40999984741211,-0.0010000000474974513 C-20.40999984741211,-11.27299976348877 -11.270999908447266,-20.410999298095703 0.0010000000474974513,-20.410999298095703z"></path>
                <path stroke-linecap="round" stroke-linejoin="round" fill-opacity="0" stroke="rgb(0,0,0)" stroke-opacity="1" stroke-width="2" d=" M0.0010000000474974513,-20.410999298095703 C11.27299976348877,-20.410999298095703 20.40999984741211,-11.27299976348877 20.40999984741211,-0.0010000000474974513 C20.40999984741211,11.272000312805176 11.27299976348877,20.410999298095703 0.0010000000474974513,20.410999298095703 C-11.270999908447266,20.410999298095703 -20.40999984741211,11.272000312805176 -20.40999984741211,-0.0010000000474974513 C-20.40999984741211,-11.27299976348877 -11.270999908447266,-20.410999298095703 0.0010000000474974513,-20.410999298095703z"></path>
            </g>
            
        </g>
    </g>
</svg>


