<?xml version="1.0" encoding="utf-8"?>
<!-- Generator: Adobe Illustrator 25.4.1, SVG Export Plug-In . SVG Version: 6.00 Build 0)  -->
<svg version="1.1" id="Слой_1" xmlns="http://www.w3.org/2000/svg" xmlns:xlink="http://www.w3.org/1999/xlink" x="0px"
    y="0px" viewBox="0 0 500 500" style="enable-background:new 0 0 500 500;" xml:space="preserve">
    <style type="text/css">
        .st0 {
            clip-path: url(#SVGID_00000022549780577666984470000005178921071989162934_);
        }

        .st1 {
            fill: #263238;
        }

        .st2 {
            fill: #232323;
        }

        .st3 {
            fill: #FFA21C;
        }

        .st4 {
            fill: #FFA21C;
        }

        .st5 {
            display: none;
        }

        .st6 {
            display: inline;
        }

        .st7 {
            fill: #FFAE2C;
        }

        .st8 {
            opacity: 0.2;
        }

        .st9 {
            fill: #DBDBDB;
        }

        .st10 {
            fill: #A6A6A6;
        }

        .st11 {
            fill: #FFC727;
        }


        @keyframes light-blinking {
            0% {
                opacity: 1;
            }

            50% {
                opacity: 0.2;
            }

            to {
                opacity: 1;
            }
        }

        @keyframes move-404 {
            10% {
                transform: translateY(-400px);
                transition: all 1s cubic-bezier(0.075, 0.82, 0.165, 1);
            }

            30% {
                transform: translateY(0px);
            }

            75% {
                transform: translateY(0px);
            }

            90% {
                transform: translateY(-400px)
            }
        }

        @keyframes move-words {
            10% {
                transform: translateY(-400px);
                transition: all 1s cubic-bezier(0.075, 0.82, 0.165, 1);
            }

            30% {
                transform: translateY(0px);
            }

            90% {
                transform: translateY(0px);
            }

            100% {
                transform: translateY(-400px);
            }
        }

        @keyframes left-cable {
            5% {
                transform: translate(250px, 250px);
                transition: all 1s cubic-bezier(0.215, 0.610, 0.355, 1);
            }

            15% {
                transform: translate(230px, 250px);

            }

            75% {
                transform: translate(230px, 250px);
            }

            85% {
                transform: translate(250px, 250px);
            }
        }

        @keyframes right-cable {
            5% {
                transform: translate(250px, 250px);
                transition: all 1s cubic-bezier(0.215, 0.610, 0.355, 1);
            }

            15% {
                transform: translate(270px, 250px);

            }

            75% {
                transform: translate(270px, 250px);
            }

            85% {
                transform: translate(250px, 250px);
            }

        }

        g#light {
            animation-name: light-blinking;
            animation-duration: 1s;
            animation-iteration-count: infinite;
        }

        g#error-code {
            transform: translateY(-400px);
            transition: all 1s cubic-bezier(0.075, 0.82, 0.165, 1);
            animation-name: move-404;
            animation-duration: 5s;
            animation-iteration-count: infinite;
            animation-delay: 0.5s
        }

        g#words {
            transform: translateY(-400px);
            transition: all 1s cubic-bezier(0.075, 0.82, 0.165, 1);
            animation-name: move-words;
            animation-duration: 5s;
            animation-iteration-count: infinite;


        }

        g#left-cabel {
            transform: translate(250px, 250px);
            transition: all 1s cubic-bezier(0.215, 0.610, 0.355, 1);
            animation-name: left-cable;
            animation-duration: 5s;
            animation-iteration-count: infinite;
        }

        g#right-cabel {
            transform: translate(250px, 250px);
            transition: all 1s cubic-bezier(0.215, 0.610, 0.355, 1);
            animation-name: right-cable;
            animation-duration: 5s;
            animation-iteration-count: infinite;
        }
    </style>
    <g>
        <defs>
            <rect id="SVGID_1_" width="500" height="500" />
        </defs>
        <clipPath id="SVGID_00000088108235198151752140000001672750310198495909_">
            <use xlink:href="#SVGID_1_" style="overflow:visible;" />
        </clipPath>
        <g style="clip-path:url(#SVGID_00000088108235198151752140000001672750310198495909_);">
            <g id="error-code">
                <g transform="matrix(1,0,0,1,250,250)">
                    <g transform="matrix(1,0,0,1,0,0)">
                        <path class="st1" d="M-32.5-149.1c0,2.9-2.3,5.1-5.2,5.1h-0.9v7c0,2.9-2.2,5.1-5.1,5.1c-2.9,0-5.1-2.2-5.1-5.1v-7h-29h-0.1H-78
						c-1.1,0-2.2-0.3-3.2-1.1c-2.3-1.8-2.6-4.9-0.8-7.1l34.3-42.6c0.1,0,0.1-0.1,0.2-0.2c0.1-0.1,0.2-0.2,0.3-0.4
						c0.3-0.1,0.4-0.2,0.5-0.3c0.1-0.1,0.3-0.2,0.4-0.3c0.2-0.1,0.3-0.2,0.6-0.2c0.1-0.2,0.2-0.3,0.4-0.3c0.1-0.1,0.3-0.1,0.6-0.2
						c0.1,0,0.3,0,0.4-0.1c0.2,0,0.5,0,0.6,0c0,0,0.1,0,0.2,0c0.1,0,0.1,0,0.2,0c0.2,0,0.5,0,0.6,0c0.2,0.1,0.3,0.1,0.5,0.1
						c0.1,0.1,0.4,0.1,0.6,0.2c0.1,0,0.3,0.1,0.4,0.1c0.2,0.2,0.4,0.3,0.5,0.4c0.2,0.1,0.3,0.2,0.5,0.3c0,0,0.1,0,0.1,0.1
						c0.1,0,0.3,0.1,0.3,0.2c0.2,0.2,0.3,0.3,0.4,0.4c0.1,0.1,0.2,0.3,0.3,0.4c0.1,0.1,0.2,0.2,0.4,0.5c0,0.1,0.1,0.3,0.2,0.4
						c0.1,0.2,0.1,0.3,0.2,0.6c0,0.1,0.1,0.3,0.1,0.4c0.1,0.2,0.1,0.3,0.1,0.6c0,0.2,0.1,0.3,0.1,0.5c0,0.1,0,0.2,0,0.3v37.4h0.9
						C-34.9-154.2-32.5-151.9-32.5-149.1z M-48.8-177.1l-18.4,22.9h18.4V-177.1z" />
                    </g>
                </g>
                <g transform="matrix(1,0,0,1,250,250)">
                    <g transform="matrix(1,0,0,1,0,0)">
                        <path class="st1" d="M-20.3-164.3c0.1-8.5,2.2-16.2,6.3-22.1c3.9-5.9,9.9-10.3,17.2-10.3c7.1,0,13.3,4.4,17.1,10.3
						c4,5.9,6.2,13.6,6.2,22.1c0,8.4-2.2,16.2-6.2,22.1c-3.9,5.8-10,10.3-17.1,10.3c-7.3,0-13.3-4.4-17.2-10.3
						C-18.1-148.1-20.2-155.8-20.3-164.3z M16.3-164.3c0-6.7-1.9-12.5-4.4-16.5c-2.7-3.9-5.7-5.7-8.6-5.7c-2.9-0.1-6,1.8-8.8,5.7
						c-2.6,4-4.4,9.8-4.4,16.5c0,6.6,1.9,12.5,4.4,16.4c2.8,4,5.9,5.7,8.8,5.7c2.9,0,5.9-1.8,8.6-5.7
						C14.4-151.8,16.3-157.7,16.3-164.3z" />
                    </g>
                </g>
                <g transform="matrix(1,0,0,1,250,250)">
                    <g transform="matrix(1,0,0,1,0,0)">
                        <path class="st1" d="M83.2-149.1c0,2.9-2.3,5.1-5.2,5.1H77v7c0,2.9-2.2,5.1-5.1,5.1c-2.9,0-5.1-2.2-5.1-5.1v-7h-29h-0.1h-0.1
						c-1.1,0-2.2-0.3-3.2-1.1c-2.3-1.8-2.6-4.9-0.8-7.1L68-194.9c0.1,0,0.1-0.1,0.2-0.2c0.1-0.1,0.2-0.2,0.3-0.4
						c0.3-0.1,0.4-0.2,0.5-0.3c0.1-0.1,0.3-0.2,0.4-0.3c0.2-0.1,0.3-0.2,0.6-0.2c0.1-0.2,0.2-0.3,0.4-0.3c0.1-0.1,0.3-0.1,0.6-0.2
						c0.1,0,0.3,0,0.4-0.1c0.2,0,0.5,0,0.6,0c0,0,0.1,0,0.2,0c0.1,0,0.1,0,0.2,0c0.2,0,0.5,0,0.6,0c0.2,0.1,0.3,0.1,0.5,0.1
						c0.1,0.1,0.4,0.1,0.6,0.2c0.1,0,0.3,0.1,0.4,0.1c0.2,0.2,0.4,0.3,0.5,0.4c0.2,0.1,0.3,0.2,0.5,0.3c0,0,0.1,0,0.1,0.1
						c0.1,0,0.3,0.1,0.3,0.2c0.2,0.2,0.3,0.3,0.4,0.4c0.1,0.1,0.2,0.3,0.3,0.4c0.1,0.1,0.2,0.2,0.4,0.5c0,0.1,0.1,0.3,0.2,0.4
						c0.1,0.2,0.1,0.3,0.2,0.6c0,0.1,0.1,0.3,0.1,0.4c0.1,0.2,0.1,0.3,0.1,0.6c0,0.2,0.1,0.3,0.1,0.5c0,0.1,0,0.2,0,0.3v37.4H78
						C80.8-154.2,83.2-151.9,83.2-149.1z M66.9-177.1l-18.4,22.9h18.4V-177.1z" />
                    </g>
                </g>
            </g>
            <g id="words">
                <path d="M162.6,127.7v3.1c0,1.2,0,2.1-0.1,3.1l0,0c0.4-0.8,0.8-1.6,1.4-2.4l2.4-3.8h1v7.4h-0.9v-3.1c0-1.2,0-2.1,0.1-3l0,0
				c-0.4,0.8-0.9,1.7-1.4,2.5l-2.3,3.7h-1v-7.4H162.6z" />
                <path d="M168.9,128.1c0.5-0.3,1.1-0.6,1.9-0.6c1.3,0,2.2,0.7,2.2,1.8c0,0.9-0.7,1.6-1.5,1.8v0c1,0.1,1.8,0.8,1.8,1.8
				c0,1.5-1.3,2.1-2.7,2.1c-0.7,0-1.4-0.1-1.9-0.5l0.3-0.7c0.4,0.2,1.1,0.4,1.7,0.4c1.1,0,1.7-0.6,1.7-1.4c0-1.1-1.1-1.4-2-1.4h-0.4
				v-0.7h0.4c1,0,1.7-0.6,1.7-1.4c0-0.7-0.5-1.2-1.3-1.2c-0.6,0-1.1,0.2-1.5,0.5L168.9,128.1z" />
                <path d="M174.8,127.8c0.4-0.1,1.1-0.2,1.7-0.2c1,0,1.6,0.2,2,0.5c0.4,0.3,0.6,0.7,0.6,1.3c0,0.7-0.5,1.3-1.2,1.6v0
				c0.7,0.2,1.5,0.8,1.5,1.8c0,0.6-0.3,1.1-0.6,1.5c-0.5,0.5-1.3,0.7-2.5,0.7c-0.7,0-1.2,0-1.5-0.1V127.8z M175.7,130.8h0.9
				c1,0,1.6-0.5,1.6-1.2c0-0.9-0.7-1.2-1.6-1.2c-0.4,0-0.7,0-0.8,0.1V130.8z M175.7,134.4c0.2,0,0.5,0,0.8,0c1,0,1.9-0.4,1.9-1.4
				c0-1-0.9-1.4-1.9-1.4h-0.8V134.4z" />
                <path d="M181.8,127.7v3.1c0,1.2,0,2.1-0.1,3.1l0,0c0.4-0.8,0.8-1.6,1.4-2.4l2.4-3.8h1v7.4h-0.9v-3.1c0-1.2,0-2.1,0.1-3l0,0
				c-0.4,0.8-0.9,1.7-1.4,2.5l-2.3,3.7h-1v-7.4H181.8z" />
                <path d="M189.3,127.7v3.1h3.6v-3.1h1v7.4h-1v-3.5h-3.6v3.5h-1v-7.4H189.3z" />
                <path d="M196.6,127.7v3.1c0,1.2,0,2.1-0.1,3.1l0,0c0.4-0.8,0.8-1.6,1.4-2.4l2.4-3.8h1v7.4h-0.9v-3.1c0-1.2,0-2.1,0.1-3l0,0
				c-0.4,0.8-0.9,1.7-1.4,2.5l-2.3,3.7h-1v-7.4H196.6z" />
                <path d="M204.5,128.5h-2.2v-0.8h5.5v0.8h-2.3v6.6h-1V128.5z" />
                <path d="M212.5,131.6h-2.9v2.7h3.2v0.8h-4.1v-7.4h4v0.8h-3v2.3h2.9V131.6z" />
                <path d="M214.1,134.5c0-0.4,0.3-0.7,0.6-0.7c0.4,0,0.6,0.3,0.6,0.7c0,0.4-0.3,0.7-0.6,0.7C214.4,135.2,214.1,134.9,214.1,134.5z
				 M214.4,133l-0.2-5.3h1.1l-0.2,5.3H214.4z" />
                <path d="M224.7,134.8c-0.4,0.2-1.1,0.4-1.9,0.4c-2.1,0-3.6-1.3-3.6-3.7c0-2.3,1.6-3.9,3.9-3.9c0.9,0,1.5,0.2,1.8,0.3l-0.2,0.8
				c-0.4-0.2-0.9-0.3-1.5-0.3c-1.7,0-2.9,1.1-2.9,3c0,1.8,1,3,2.8,3c0.6,0,1.2-0.1,1.6-0.3L224.7,134.8z" />
                <path d="M227.9,128.5h-2.2v-0.8h5.5v0.8h-2.3v6.6h-1V128.5z" />
                <path d="M232.2,127.8c0.5-0.1,1.1-0.1,1.8-0.1c0.9,0,1.6,0.2,2.1,0.6c0.4,0.4,0.6,0.9,0.6,1.5c0,0.7-0.2,1.2-0.6,1.6
				c-0.5,0.5-1.3,0.8-2.3,0.8c-0.3,0-0.5,0-0.8-0.1v3h-1V127.8z M233.1,131.4c0.2,0.1,0.5,0.1,0.8,0.1c1.1,0,1.8-0.6,1.8-1.6
				c0-1-0.7-1.4-1.7-1.4c-0.4,0-0.7,0-0.9,0.1V131.4z" />
                <path d="M238.5,132.8l-0.8,2.3h-1l2.5-7.4h1.1l2.5,7.4h-1l-0.8-2.3H238.5z M240.9,132l-0.7-2.1c-0.2-0.5-0.3-0.9-0.4-1.3h0
				c-0.1,0.4-0.2,0.9-0.4,1.3l-0.7,2.1H240.9z" />
                <path d="M245.2,127.7v3.1h3.6v-3.1h1v7.4h-1v-3.5h-3.6v3.5h-1v-7.4H245.2z" />
                <path d="M252.5,127.7v3.1c0,1.2,0,2.1-0.1,3.1l0,0c0.4-0.8,0.8-1.6,1.4-2.4l2.4-3.8h1v7.4h-0.9v-3.1c0-1.2,0-2.1,0.1-3l0,0
				c-0.4,0.8-0.9,1.7-1.4,2.5l-2.3,3.7h-1v-7.4H252.5z" />
                <path d="M259.9,127.7v6.6h3.4v-6.6h1v6.6l0.6,0l-0.1,2.5h-0.8l-0.1-1.8H259v-7.4H259.9z" />
                <path d="M267.6,132.8l-0.8,2.3h-1l2.5-7.4h1.1l2.5,7.4h-1l-0.8-2.3H267.6z M270,132l-0.7-2.1c-0.2-0.5-0.3-0.9-0.4-1.3h0
				c-0.1,0.4-0.2,0.9-0.4,1.3l-0.7,2.1H270z" />
                <path d="M276.8,127.7v3.1h3.6v-3.1h1v7.4h-1v-3.5h-3.6v3.5h-1v-7.4H276.8z" />
                <path d="M287,131.6h-2.9v2.7h3.2v0.8h-4.1v-7.4h4v0.8h-3v2.3h2.9V131.6z" />
                <path d="M292.2,127.7v3.1h3.6v-3.1h1v7.4h-1v-3.5h-3.6v3.5h-1v-7.4H292.2z" />
                <path d="M299.8,132.8l-0.8,2.3h-1l2.5-7.4h1.1l2.5,7.4h-1l-0.8-2.3H299.8z M302.2,132l-0.7-2.1c-0.2-0.5-0.3-0.9-0.4-1.3h0
				c-0.1,0.4-0.2,0.9-0.4,1.3L300,132H302.2z" />
                <path d="M306.4,127.7v3.1c0,1.2,0,2.1-0.1,3.1l0,0c0.4-0.8,0.8-1.6,1.4-2.4l2.4-3.8h1v7.4h-0.9v-3.1c0-1.2,0-2.1,0.1-3l0,0
				c-0.4,0.8-0.9,1.7-1.4,2.5l-2.3,3.7h-1v-7.4H306.4z M307.6,126.2c0,0.3,0.2,0.7,0.7,0.7c0.5,0,0.6-0.3,0.7-0.7h0.7
				c-0.1,0.7-0.5,1.2-1.4,1.2c-0.9,0-1.3-0.4-1.4-1.2H307.6z" />
                <path d="M318,127.7v6.6l0.6,0l-0.1,2.5h-0.7l-0.1-1.8h-4.7l-0.1,1.8h-0.7l-0.1-2.5l0.6,0c0.3-0.5,0.5-1,0.7-1.6
				c0.3-0.9,0.4-1.8,0.4-3.1v-1.9H318z M314.8,129.9c0,1.2-0.1,2.2-0.4,3c-0.2,0.5-0.4,1-0.6,1.4h3.3v-5.8h-2.3V129.9z" />
                <path d="M323.9,131.6H321v2.7h3.2v0.8h-4.1v-7.4h4v0.8h-3v2.3h2.9V131.6z" />
                <path d="M326.6,127.7v3.1h3.6v-3.1h1v7.4h-1v-3.5h-3.6v3.5h-1v-7.4H326.6z" />
                <path d="M334.2,132.8l-0.8,2.3h-1l2.5-7.4h1.1l2.5,7.4h-1l-0.8-2.3H334.2z M336.6,132l-0.7-2.1c-0.2-0.5-0.3-0.9-0.4-1.3h0
				c-0.1,0.4-0.2,0.9-0.4,1.3l-0.7,2.1H336.6z" />
            </g>
            <g transform="matrix(1,0,0,1,250,270)">
                <g transform="matrix(1,0,0,1,0,0)">
                    <path class="st1" d="M-214.1,138.8l53-0.2l53-0.1l106-0.2l106,0.2l53,0.1l53,0.2l-53,0.2l-53,0.1l-106,0.2l-106-0.2l-53-0.1
					L-214.1,138.8z" />
                </g>
            </g>
            <g transform="matrix(1,0,0,1,191.54600524902344,293.87298583984375)">
                <g transform="matrix(1,0,0,1,12.315999984741211,25.514999389648438)">
                    <path class="st2" d="M-10.8-1.8h21.7v3.6h-21.7V-1.8z" />
                </g>
                <g transform="matrix(1,0,0,1,12.315999984741211,22.250999450683594)">
                    <path class="st2" d="M-8.1-1.5H8.1v2.9H-8.1V-1.5z" />
                </g>
                <g id="light" transform="matrix(1,0,0,1,12.315999984741211,13.822999954223633)">
                    <path class="st3" d="M-5.4,7v-8.7h0c0.2-3,2.8-5.3,5.7-5.1c2.7,0.2,4.9,2.3,5.1,5.1h0V7H-5.4z" />
                </g>
                <g transform="matrix(1,0,0,1,12.322999954223633,16.086000442504883)">
                    <path d="M0-4.7L0-4.7c0.6,0,1.1,0.5,1.1,1.1v8.3h-2.2v-8.3C-1.1-4.2-0.6-4.7,0-4.7z" />
                </g>
                <g transform="matrix(1,0,0,1,12.315999984741211,30.229000091552734)">
                    <path class="st2" d="M-1.4-2.9h2.7v5.8h-2.7V-2.9z" />
                </g>
                <g transform="matrix(1,0,0,1,2.132999897003174,11.711999893188477)">
                    <path class="st4" d="M-1.7-0.2h3.3c0.1,0,0.2,0.1,0.2,0.2c0,0.1-0.1,0.2-0.2,0.2h-3.3c-0.1,0-0.2-0.1-0.2-0.2
					C-1.9-0.1-1.8-0.2-1.7-0.2z" />
                </g>
                <g transform="matrix(1,0,0,1,22.367000579833984,11.711999893188477)">
                    <path class="st4" d="M-1.7-0.2h3.3c0.1,0,0.2,0.1,0.2,0.2c0,0.1-0.1,0.2-0.2,0.2h-3.3c-0.1,0-0.2-0.1-0.2-0.2
					C-1.9-0.1-1.8-0.2-1.7-0.2z" />
                </g>
                <g transform="matrix(1,0,0,1,5.658999919891357,3.868000030517578)">
                    <path class="st4" d="M-1-1.3L1.3,1c0.1,0.1,0.1,0.2,0,0.3C1.2,1.4,1.1,1.4,1,1.3L-1.3-1c-0.1-0.1-0.1-0.2,0-0.3
					C-1.2-1.4-1.1-1.4-1-1.3z" />
                </g>
                <g transform="matrix(1,0,0,1,18.841999053955078,3.868000030517578)">
                    <path class="st4" d="M1.3-1L-1,1.3c-0.1,0.1-0.2,0.1-0.3,0c-0.1-0.1-0.1-0.2,0-0.3L1-1.3c0.1-0.1,0.2-0.1,0.3,0
					C1.4-1.2,1.4-1.1,1.3-1z" />
                </g>
                <g transform="matrix(1,0,0,1,11.956000328063965,2.25)">
                    <path class="st4" d="M0.2-1.8v3.5C0.2,1.9,0.1,2,0,2h0c-0.1,0-0.2-0.1-0.2-0.2v-3.5C-0.2-1.9-0.1-2,0-2h0C0.1-2,0.2-1.9,0.2-1.8
					z" />
                </g>
            </g>
            <g transform="matrix(1,0,0,1,284.5459899902344,293.87298583984375)">
                <g transform="matrix(1,0,0,1,12.315999984741211,25.514999389648438)">
                    <path class="st2" d="M-10.8-1.8h21.7v3.6h-21.7V-1.8z" />
                </g>
                <g transform="matrix(1,0,0,1,12.315999984741211,22.250999450683594)">
                    <path class="st2" d="M-8.1-1.5H8.1v2.9H-8.1V-1.5z" />
                </g>
                <g id="light" transform="matrix(1,0,0,1,12.315999984741211,13.822999954223633)">
                    <path class="st3" d="M-5.4,7v-8.7h0c0.2-3,2.8-5.3,5.7-5.1c2.7,0.2,4.9,2.3,5.1,5.1h0V7H-5.4z" />
                </g>
                <g transform="matrix(1,0,0,1,12.322999954223633,16.086000442504883)">
                    <path d="M0-4.7L0-4.7c0.6,0,1.1,0.5,1.1,1.1v8.3h-2.2v-8.3C-1.1-4.2-0.6-4.7,0-4.7z" />
                </g>
                <g transform="matrix(1,0,0,1,12.315999984741211,30.229000091552734)">
                    <path class="st2" d="M-1.4-2.9h2.7v5.8h-2.7V-2.9z" />
                </g>
                <g transform="matrix(1,0,0,1,2.132999897003174,11.711999893188477)">
                    <path class="st4" d="M-1.7-0.2h3.3c0.1,0,0.2,0.1,0.2,0.2c0,0.1-0.1,0.2-0.2,0.2h-3.3c-0.1,0-0.2-0.1-0.2-0.2
					C-1.9-0.1-1.8-0.2-1.7-0.2z" />
                </g>
                <g transform="matrix(1,0,0,1,22.367000579833984,11.711999893188477)">
                    <path class="st4" d="M-1.7-0.2h3.3c0.1,0,0.2,0.1,0.2,0.2c0,0.1-0.1,0.2-0.2,0.2h-3.3c-0.1,0-0.2-0.1-0.2-0.2
					C-1.9-0.1-1.8-0.2-1.7-0.2z" />
                </g>
                <g transform="matrix(1,0,0,1,5.658999919891357,3.868000030517578)">
                    <path class="st4" d="M-1-1.3L1.3,1c0.1,0.1,0.1,0.2,0,0.3C1.2,1.4,1.1,1.4,1,1.3L-1.3-1c-0.1-0.1-0.1-0.2,0-0.3
					C-1.2-1.4-1.1-1.4-1-1.3z" />
                </g>
                <g transform="matrix(1,0,0,1,18.841999053955078,3.868000030517578)">
                    <path class="st4" d="M1.3-1L-1,1.3c-0.1,0.1-0.2,0.1-0.3,0c-0.1-0.1-0.1-0.2,0-0.3L1-1.3c0.1-0.1,0.2-0.1,0.3,0
					C1.4-1.2,1.4-1.1,1.3-1z" />
                </g>
                <g transform="matrix(1,0,0,1,11.956000328063965,2.25)">
                    <path class="st4" d="M0.2-1.8v3.5C0.2,1.9,0.1,2,0,2h0c-0.1,0-0.2-0.1-0.2-0.2v-3.5C-0.2-1.9-0.1-2,0-2h0C0.1-2,0.2-1.9,0.2-1.8
					z" />
                </g>
            </g>
            <g transform="matrix(1,0,0,1,191.54600524902344,293.87298583984375)" class="st5">
                <g transform="matrix(1,0,0,1,12.315999984741211,25.514999389648438)" class="st6">
                    <path class="st2" d="M-10.8-1.8h21.7v3.6h-21.7V-1.8z" />
                </g>
                <g transform="matrix(1,0,0,1,12.315999984741211,22.250999450683594)" class="st6">
                    <path class="st2" d="M-8.1-1.5H8.1v2.9H-8.1V-1.5z" />
                </g>
                <g transform="matrix(1,0,0,1,12.315999984741211,13.822999954223633)" class="st6">
                    <path class="st4" d="M-5.4,7v-8.7h0c0.2-3,2.8-5.3,5.7-5.1c2.7,0.2,4.9,2.3,5.1,5.1h0V7H-5.4z" />
                </g>
                <g transform="matrix(1,0,0,1,12.322999954223633,16.086000442504883)" class="st6">
                    <path d="M0-4.7L0-4.7c0.6,0,1.1,0.5,1.1,1.1v8.3h-2.2v-8.3C-1.1-4.2-0.6-4.7,0-4.7z" />
                </g>
                <g transform="matrix(1,0,0,1,12.315999984741211,30.229000091552734)" class="st6">
                    <path class="st2" d="M-1.4-2.9h2.7v5.8h-2.7V-2.9z" />
                </g>
                <g transform="matrix(1,0,0,1,2.132999897003174,11.711999893188477)" class="st6">
                    <path class="st4" d="M-1.7-0.2h3.3c0.1,0,0.2,0.1,0.2,0.2c0,0.1-0.1,0.2-0.2,0.2h-3.3c-0.1,0-0.2-0.1-0.2-0.2
					C-1.9-0.1-1.8-0.2-1.7-0.2z" />
                </g>
                <g transform="matrix(1,0,0,1,22.367000579833984,11.711999893188477)" class="st6">
                    <path class="st4" d="M-1.7-0.2h3.3c0.1,0,0.2,0.1,0.2,0.2c0,0.1-0.1,0.2-0.2,0.2h-3.3c-0.1,0-0.2-0.1-0.2-0.2
					C-1.9-0.1-1.8-0.2-1.7-0.2z" />
                </g>
                <g transform="matrix(1,0,0,1,5.658999919891357,3.868000030517578)" class="st6">
                    <path class="st4" d="M-1-1.3L1.3,1c0.1,0.1,0.1,0.2,0,0.3C1.2,1.4,1.1,1.4,1,1.3L-1.3-1c-0.1-0.1-0.1-0.2,0-0.3
					C-1.2-1.4-1.1-1.4-1-1.3z" />
                </g>
                <g transform="matrix(1,0,0,1,18.841999053955078,3.868000030517578)" class="st6">
                    <path class="st4" d="M1.3-1L-1,1.3c-0.1,0.1-0.2,0.1-0.3,0c-0.1-0.1-0.1-0.2,0-0.3L1-1.3c0.1-0.1,0.2-0.1,0.3,0
					C1.4-1.2,1.4-1.1,1.3-1z" />
                </g>
                <g transform="matrix(1,0,0,1,11.956000328063965,2.25)" class="st6">
                    <path class="st4" d="M0.2-1.8v3.5C0.2,1.9,0.1,2,0,2h0c-0.1,0-0.2-0.1-0.2-0.2v-3.5C-0.2-1.9-0.1-2,0-2h0C0.1-2,0.2-1.9,0.2-1.8
					z" />
                </g>
            </g>
            <g transform="matrix(1,0,0,1,284.5459899902344,293.87298583984375)" class="st5">
                <g transform="matrix(1,0,0,1,12.315999984741211,25.514999389648438)" class="st6">
                    <path class="st2" d="M-10.8-1.8h21.7v3.6h-21.7V-1.8z" />
                </g>
                <g transform="matrix(1,0,0,1,12.315999984741211,22.250999450683594)" class="st6">
                    <path class="st2" d="M-8.1-1.5H8.1v2.9H-8.1V-1.5z" />
                </g>
                <g transform="matrix(1,0,0,1,12.315999984741211,13.822999954223633)" class="st6">
                    <path class="st4" d="M-5.4,7v-8.7h0c0.2-3,2.8-5.3,5.7-5.1c2.7,0.2,4.9,2.3,5.1,5.1h0V7H-5.4z" />
                </g>
                <g transform="matrix(1,0,0,1,12.322999954223633,16.086000442504883)" class="st6">
                    <path d="M0-4.7L0-4.7c0.6,0,1.1,0.5,1.1,1.1v8.3h-2.2v-8.3C-1.1-4.2-0.6-4.7,0-4.7z" />
                </g>
                <g transform="matrix(1,0,0,1,12.315999984741211,30.229000091552734)" class="st6">
                    <path class="st2" d="M-1.4-2.9h2.7v5.8h-2.7V-2.9z" />
                </g>
                <g transform="matrix(1,0,0,1,2.132999897003174,11.711999893188477)" class="st6">
                    <path class="st4" d="M-1.7-0.2h3.3c0.1,0,0.2,0.1,0.2,0.2c0,0.1-0.1,0.2-0.2,0.2h-3.3c-0.1,0-0.2-0.1-0.2-0.2
					C-1.9-0.1-1.8-0.2-1.7-0.2z" />
                </g>
                <g transform="matrix(1,0,0,1,22.367000579833984,11.711999893188477)" class="st6">
                    <path class="st4" d="M-1.7-0.2h3.3c0.1,0,0.2,0.1,0.2,0.2c0,0.1-0.1,0.2-0.2,0.2h-3.3c-0.1,0-0.2-0.1-0.2-0.2
					C-1.9-0.1-1.8-0.2-1.7-0.2z" />
                </g>
                <g transform="matrix(1,0,0,1,5.658999919891357,3.868000030517578)" class="st6">
                    <path class="st4" d="M-1-1.3L1.3,1c0.1,0.1,0.1,0.2,0,0.3C1.2,1.4,1.1,1.4,1,1.3L-1.3-1c-0.1-0.1-0.1-0.2,0-0.3
					C-1.2-1.4-1.1-1.4-1-1.3z" />
                </g>
                <g transform="matrix(1,0,0,1,18.841999053955078,3.868000030517578)" class="st6">
                    <path class="st4" d="M1.3-1L-1,1.3c-0.1,0.1-0.2,0.1-0.3,0c-0.1-0.1-0.1-0.2,0-0.3L1-1.3c0.1-0.1,0.2-0.1,0.3,0
					C1.4-1.2,1.4-1.1,1.3-1z" />
                </g>
                <g transform="matrix(1,0,0,1,11.956000328063965,2.25)" class="st6">
                    <path class="st4" d="M0.2-1.8v3.5C0.2,1.9,0.1,2,0,2h0c-0.1,0-0.2-0.1-0.2-0.2v-3.5C-0.2-1.9-0.1-2,0-2h0C0.1-2,0.2-1.9,0.2-1.8
					z" />
                </g>
            </g>
            <g transform="matrix(1,0,0,1,250,270)">
                <g transform="matrix(1,0,0,1,0,0)">
                    <path class="st1" d="M-36.3,71.7l-0.9,5.6l-1,6l-9,55.2h-14.7l9-55.2l1-6l0.9-5.6H-36.3z" />
                </g>
                <g transform="matrix(1,0,0,1,0,0)">
                    <path class="st1" d="M36.3,71.7l0.9,5.6l1,6l9,55.2h14.7l-9-55.2l-1-6L51,71.7H36.3z" />
                </g>
                <g transform="matrix(1,0,0,1,0,0)">
                    <g transform="matrix(1,0,0,1,0,0)">
                        <path class="st7" d="M73.3,50.7v28H-73.3v-28H73.3z" />
                    </g>
                    <g transform="matrix(1,0,0,1,0,0)">
                        <g transform="matrix(1,0,0,1,0,0)" class="st8">
                            <path d="M-43.2,50.7l-10.6,28h-18.9l10.6-28H-43.2z" />
                        </g>
                        <g transform="matrix(1,0,0,1,0,0)" class="st8">
                            <path d="M-4.4,50.7l-10.6,28h-18.9l10.6-28H-4.4z" />
                        </g>
                        <g transform="matrix(1,0,0,1,0,0)" class="st8">
                            <path d="M34.4,50.7l-10.6,28H4.9l10.6-28H34.4z" />
                        </g>
                        <g transform="matrix(1,0,0,1,0,0)" class="st8">
                            <path d="M73.3,50.7l-10.6,28H43.7l10.6-28H73.3z" />
                        </g>
                    </g>
                </g>
                <g transform="matrix(1,0,0,1,0,0)">
                    <g transform="matrix(1,0,0,1,0,0)">
                        <path class="st7" d="M70.3,104.6v17.7H-70.3v-17.7H70.3z" />
                    </g>
                    <g transform="matrix(1,0,0,1,0,0)">
                        <g transform="matrix(1,0,0,1,0,0)" class="st8">
                            <path d="M-41.4,104.6l-10.2,17.7h-18.2l10.2-17.7H-41.4z" />
                        </g>
                        <g transform="matrix(1,0,0,1,0,0)" class="st8">
                            <path d="M-4.2,104.6l-10.2,17.7h-18.2l10.2-17.7H-4.2z" />
                        </g>
                        <g transform="matrix(1,0,0,1,0,0)" class="st8">
                            <path d="M33,104.6l-10.2,17.7H4.7l10.2-17.7H33z" />
                        </g>
                        <g transform="matrix(1,0,0,1,0,0)" class="st8">
                            <path d="M70.3,104.6l-10.2,17.7H41.9l10.2-17.7H70.3z" />
                        </g>
                    </g>
                </g>
            </g>
            <!-- <g transform="matrix(0.695483922958374,0,0,0.695483922958374,250,244.54824829101562)">
                <g transform="matrix(1,0,0,1,0,0)">
                    <g transform="matrix(1,0,0,1,0,0)">
                        <path class="st1" d="M0.2-68.3c-0.3,0-0.5-0.2-0.5-0.5v-14.1c0-0.3,0.2-0.5,0.5-0.5s0.5,0.2,0.5,0.5v14.1
						C0.7-68.5,0.4-68.3,0.2-68.3z" />
                    </g>
                </g>
                <g transform="matrix(1,0,0,1,0,0)">
                    <g transform="matrix(1,0,0,1,0,0)">
                        <path class="st1" d="M-25.3-61.6c-0.2,0-0.3-0.1-0.4-0.2l-7-12.2c-0.1-0.2-0.1-0.5,0.2-0.7c0.2-0.1,0.5-0.1,0.7,0.2l7,12.2
						c0.1,0.2,0.1,0.5-0.2,0.7C-25.1-61.6-25.2-61.6-25.3-61.6z" />
                    </g>
                </g>
                <g transform="matrix(1,0,0,1,0,0)">
                    <g transform="matrix(1,0,0,1,0,0)">
                        <path class="st1" d="M-32.6,38.8c-0.1,0-0.2,0-0.2-0.1c-0.2-0.1-0.3-0.4-0.2-0.7l7-12.2c0.1-0.2,0.4-0.3,0.7-0.2
						c0.2,0.1,0.3,0.4,0.2,0.7l-7,12.2C-32.3,38.7-32.4,38.8-32.6,38.8z" />
                    </g>
                </g>
                <g transform="matrix(1,0,0,1,0,0)">
                    <g transform="matrix(1,0,0,1,0,0)">
                        <path class="st1" d="M-0.2,47.6c-0.3,0-0.5-0.2-0.5-0.5V33c0-0.3,0.2-0.5,0.5-0.5s0.5,0.2,0.5,0.5v14.1
						C0.3,47.3,0.1,47.6-0.2,47.6z" />
                    </g>
                </g>
                <g transform="matrix(1,0,0,1,0,0)">
                    <g transform="matrix(1,0,0,1,0,0)">
                        <path class="st1" d="M32.3,38.9c-0.2,0-0.3-0.1-0.4-0.2l-7-12.2c-0.1-0.2-0.1-0.5,0.2-0.7c0.2-0.1,0.5-0.1,0.7,0.2l7,12.2
						c0.1,0.2,0.1,0.5-0.2,0.7C32.5,38.9,32.4,38.9,32.3,38.9z" />
                    </g>
                </g>
                <g transform="matrix(1,0,0,1,0,0)">
                    <g transform="matrix(1,0,0,1,0,0)">
                        <path class="st1" d="M25.6-61.4c-0.1,0-0.2,0-0.2-0.1c-0.2-0.1-0.3-0.4-0.2-0.7l7-12.2c0.1-0.2,0.4-0.3,0.7-0.2
						c0.2,0.1,0.3,0.4,0.2,0.7l-7,12.2C25.9-61.5,25.8-61.4,25.6-61.4z" />
                    </g>
                </g>
            </g> -->
            <g id="right-cabel" transform="matrix(1,0,0,1,249.99998474121094,249.99998474121094)">
                <g transform="matrix(1,0,0,1,0,0)">
                    <g transform="matrix(1,0,0,1,0,0)">
                        <path class="st7" d="M249.5,220.3h-45.3c-23.7,0-38.3-16.4-40.9-46.2c-1.3-14.7-2.1-32.5-2.9-51.3c-2.6-57.8-11.8-137-34.3-137
						h-25.9v-6h25.9c28.2,0,37.1,72.6,40.3,142.7c0.8,18.8,1.6,36.5,2.9,51c1.6,18.6,9,40.7,34.9,40.7h45.3V220.3z" />
                    </g>
                    <g transform="matrix(1,0,0,1,0,0)" class="st8">
                        <path d="M119.2-20.2l-1.3,6h-17.7v-6H119.2z" />
                    </g>
                </g>
                <g transform="matrix(1,0,0,1,0,0)">
                    <path class="st7" d="M51.5,20H41v-73.1h10.5V20z" />
                </g>
                <g transform="matrix(1,0,0,1,0,0)">
                    <g transform="matrix(1,0,0,1,0,0)">
                        <path class="st7" d="M41,13.8H1.2v-61.5H41V13.8z" />
                    </g>
                    <g transform="matrix(1,0,0,1,0,0)" class="st8">
                        <path d="M41-47.7v61.5h-9.9l-4.4-61.5H41z" />
                    </g>
                </g>
                <g transform="matrix(1,0,0,1,0,0)">
                    <g transform="matrix(1,0,0,1,0,0)">
                        <path class="st9"
                            d="M1.2-27.5h-30.5c-2.2,0-3.9-1.8-3.9-3.9v-1.3c0-2.2,1.8-3.9,3.9-3.9H1.2V-27.5z" />
                    </g>
                    <g transform="matrix(1,0,0,1,0,0)">
                        <path class="st10" d="M1.2-36.6v9.2H-9.5v-9.2H1.2z" />
                    </g>
                </g>
                <g transform="matrix(1,0,0,1,0,0)">
                    <g transform="matrix(1,0,0,1,0,0)">
                        <path class="st9"
                            d="M1.2,2.8h-30.5c-2.2,0-3.9-1.8-3.9-3.9v-1.3c0-2.2,1.8-3.9,3.9-3.9H1.2V2.8z" />
                    </g>
                    <g transform="matrix(1,0,0,1,0,0)">
                        <path class="st10" d="M1.2-6.4v9.2H-9.5v-9.2H1.2z" />
                    </g>
                </g>
                <g transform="matrix(1,0,0,1,0,0)">
                    <g transform="matrix(1,0,0,1,0,0)">
                        <path class="st11" d="M113.3-10.5H82.2v-12.3h31.1V-10.5z" />
                    </g>
                    <g transform="matrix(1,0,0,1,0,0)">
                        <path class="st7" d="M113.3-22.8v12.3H82.2v-12.3H113.3z" />
                    </g>
                    <g transform="matrix(1,0,0,1,0,0)" class="st8">
                        <path d="M93.1-22.8l-1,12.3h-9.9v-12.3H93.1z" />
                    </g>
                </g>
                <g transform="matrix(1,0,0,1,0,0)">
                    <g transform="matrix(1,0,0,1,0,0)">
                        <path class="st7"
                            d="M76.1,11.5H51.5v-56.9h24.6c3.4,0,6.2,2.8,6.2,6.2V5.4C82.2,8.8,79.5,11.5,76.1,11.5z" />
                    </g>
                    <g transform="matrix(1,0,0,1,0,0)" class="st8">
                        <path d="M64.6-45.4l-4.4,56.9h-8.7v-56.9H64.6z" />
                    </g>
                    <g transform="matrix(1,0,0,1,0,0)">
                        <g transform="matrix(1,0,0,1,0,0)">
                            <path d="M62.3,0h-2v-33.9h2V0z" />
                        </g>
                        <g transform="matrix(1,0,0,1,0,0)">
                            <path d="M67.8,0h-2v-33.9h2V0z" />
                        </g>
                        <g transform="matrix(1,0,0,1,0,0)">
                            <path d="M73.4,0h-2v-33.9h2V0z" />
                        </g>
                    </g>
                </g>
            </g>
            <g id="left-cabel" transform="matrix(1,0,0,1,250,250)">
                <g transform="matrix(1,0,0,1,0,0)">
                    <g transform="matrix(1,0,0,1,0,0)">
                        <path class="st7" d="M-204.7,220.3H-250v-6h45.3c25.9,0,33.3-22.1,34.9-40.7c1.3-14.6,2.1-32.3,2.9-51
						c3.1-70.2,12-142.7,40.3-142.7h25.9v6h-25.9c-22.5,0-31.7,79.2-34.3,137c-0.8,18.8-1.6,36.6-2.9,51.3
						C-166.4,203.9-180.9,220.3-204.7,220.3z" />
                    </g>
                    <g transform="matrix(1,0,0,1,0,0)" class="st8">
                        <path d="M-100.8-20.2v6h-20.6l-1.3-6H-100.8z" />
                    </g>
                </g>
                <g transform="matrix(1,0,0,1,0,0)">
                    <path class="st7" d="M-11-55.4H0v77h-11V-55.4z" />
                </g>
                <g transform="matrix(1,0,0,1,0,0)">
                    <g transform="matrix(1,0,0,1,0,0)">
                        <path class="st7" d="M-11,17.1h-41.9v-68.9H-11V17.1z" />
                    </g>
                    <g transform="matrix(1,0,0,1,0,0)" class="st8">
                        <path d="M-11-51.8v68.9h-10.4l-4.7-68.9H-11z" />
                    </g>
                </g>
                <g transform="matrix(1,0,0,1,0,0)">
                    <g transform="matrix(1,0,0,1,0,0)">
                        <path class="st11" d="M-116.3-23.3h31.1v12.3h-31.1V-23.3z" />
                    </g>
                    <g transform="matrix(1,0,0,1,0,0)">
                        <path class="st7" d="M-116.3-11.1v-12.3h31.1v12.3H-116.3z" />
                    </g>
                    <g transform="matrix(1,0,0,1,0,0)" class="st8">
                        <path d="M-96.2-11.1l1-12.3h9.9v12.3H-96.2z" />
                    </g>
                </g>
                <g transform="matrix(1,0,0,1,0,0)">
                    <g transform="matrix(1,0,0,1,0,0)">
                        <path class="st7"
                            d="M-79.1-46.9h26.2V13h-26.2c-3.4,0-6.2-2.8-6.2-6.2v-47.6C-85.2-44.1-82.5-46.9-79.1-46.9z" />
                    </g>
                    <g transform="matrix(1,0,0,1,0,0)" class="st8">
                        <path d="M-66.6,13l4.7-59.9h9.1V13H-66.6z" />
                    </g>
                    <g transform="matrix(1,0,0,1,0,0)">
                        <g transform="matrix(1,0,0,1,0,0)">
                            <path d="M-64.2-34.8h2.1V0.9h-2.1V-34.8z" />
                        </g>
                        <g transform="matrix(1,0,0,1,0,0)">
                            <path d="M-70.1-34.8h2.1V0.9h-2.1V-34.8z" />
                        </g>
                        <g transform="matrix(1,0,0,1,0,0)">
                            <path d="M-75.9-34.8h2.1V0.9h-2.1V-34.8z" />
                        </g>
                    </g>
                </g>
            </g>
        </g>
    </g>
</svg>